<svg width="105" height="28" viewBox="0 0 105 28" fill="none" xmlns="http://www.w3.org/2000/svg">
<path d="M31.009 0.668701C25.7391 0.668701 21.4681 4.93159 21.4681 10.1915C21.4681 15.4514 25.7391 19.7143 31.009 19.7143C36.2789 19.7143 40.5499 15.4514 40.5499 10.1915C40.5499 4.93159 36.2789 0.668701 31.009 0.668701ZM31.009 15.9068C27.8479 15.9068 25.2849 13.3487 25.2849 10.1935C25.2849 7.03842 27.8479 4.48028 31.009 4.48028C34.1701 4.48028 36.7331 7.03842 36.7331 10.1935C36.7331 13.3487 34.1701 15.9068 31.009 15.9068Z" fill="white"/>
<path d="M52.477 0.668701C47.2071 0.668701 42.9362 4.93159 42.9362 10.1915C42.9362 15.4514 47.2071 19.7143 52.477 19.7143C57.7469 19.7143 62.0179 15.4514 62.0179 10.1915C62.0179 4.93159 57.7469 0.668701 52.477 0.668701ZM52.477 15.9068C49.3159 15.9068 46.7529 13.3487 46.7529 10.1935C46.7529 7.03842 49.3159 4.48028 52.477 4.48028C55.6381 4.48028 58.2011 7.03842 58.2011 10.1935C58.2011 13.3487 55.6381 15.9068 52.477 15.9068V15.9068Z" fill="white"/>
<path d="M73.4681 1.14453C68.7264 1.14453 64.8809 4.98277 64.8809 9.71544V19.2382H68.6976V9.71544C68.6976 7.0855 70.8331 4.95405 73.4681 4.95405H75.3754V1.14453H73.4681Z" fill="white"/>
<path d="M104 8.76358C104 4.55607 100.582 1.14453 96.3663 1.14453C94.0849 1.14453 92.0398 2.14358 90.6422 3.72729C89.2446 2.14563 87.1974 1.14453 84.9181 1.14453C80.7026 1.14453 77.2845 4.55607 77.2845 8.76358V19.2382H81.1013V8.76358C81.1013 6.6588 82.8093 4.95405 84.9181 4.95405C87.0268 4.95405 88.7348 6.6588 88.7348 8.76358V19.2382H92.5516V8.76358C92.5516 6.6588 94.2596 4.95405 96.3683 4.95405C98.4771 4.95405 100.185 6.6588 100.185 8.76358V19.2382H104.002V8.76358H104Z" fill="white"/>
<path d="M19.0817 10.1895C19.0817 4.92964 14.8108 0.666748 9.54087 0.666748C4.27099 0.666748 0.261028 4.67526 0.012332 9.71155C0.00411067 9.86951 0 10.0295 0 10.1895C0 10.3495 0.00411067 10.5096 0.012332 10.6675C0.261028 15.5725 4.32648 19.4744 9.30245 19.4744C11.5715 19.4744 13.6515 18.664 15.265 17.3162V18.7584C15.23 19.3533 15.0512 20.8939 13.8674 22.1248C12.1779 23.8829 9.55526 23.8521 7.84111 23.2634C6.04474 22.6459 5.03763 21.3453 4.64917 20.7791L1.09755 22.2479C2.26704 24.4594 4.28332 26.1559 6.71478 26.9067C6.9532 26.9806 8.04253 27.315 9.53676 27.3314C10.5911 27.3437 13.9907 27.3806 16.5619 24.8204C18.8906 22.5023 19.0571 19.5297 19.0776 18.7604V10.1895H19.0817ZM9.53676 15.9028C6.37565 15.9028 3.81265 13.3446 3.81265 10.1895C3.81265 7.03442 6.37565 4.47627 9.53676 4.47627C12.6979 4.47627 15.2609 7.03442 15.2609 10.1895C15.2609 13.3446 12.6979 15.9028 9.53676 15.9028V15.9028Z" fill="white"/>
</svg>
