<svg width="32" height="30" viewBox="0 0 32 30" fill="none" xmlns="http://www.w3.org/2000/svg">
<path fill-rule="evenodd" clip-rule="evenodd" d="M15.9886 0C7.13776 0 0 5.71014 0 12.6423C0 17.142 2.96931 21.082 7.42327 23.3318L5.91578 28.9621C5.88735 29.0465 5.88298 29.1371 5.90315 29.2238C5.92332 29.3106 5.96724 29.39 6.02998 29.4531C6.12147 29.5338 6.23919 29.5785 6.36117 29.5788C6.46231 29.5706 6.55827 29.5307 6.63526 29.4646L13.1221 25.0906C14.0796 25.2228 15.0448 25.2914 16.0114 25.2961C24.8508 25.2961 32 19.5859 32 12.6423C32 5.69872 24.828 0 15.9886 0ZM5.59514 10.6438H3.84782C3.63125 10.6501 3.41735 10.5946 3.23111 10.4839C3.14843 10.4321 3.07734 10.3637 3.02231 10.2831C2.96729 10.2025 2.92951 10.1115 2.91134 10.0156C2.9058 9.95481 2.9058 9.89375 2.91134 9.83297C2.90592 9.71924 2.92799 9.60581 2.97571 9.50243C3.02342 9.39905 3.09536 9.30874 3.18543 9.23908C3.38453 9.09489 3.62485 9.01872 3.87066 9.02202H9.13547C9.35376 9.01435 9.56911 9.0742 9.75217 9.19336C9.83681 9.24287 9.90939 9.31062 9.96469 9.3916C10.02 9.47257 10.0566 9.56478 10.0719 9.66163C10.0775 9.7186 10.0775 9.776 10.0719 9.83297C10.0773 9.94834 10.0553 10.0633 10.0077 10.1685C9.96001 10.2737 9.88811 10.3661 9.79786 10.4381C9.6036 10.5822 9.36561 10.6548 9.12405 10.6438H7.43383V16.6509C7.44069 16.7789 7.42089 16.9068 7.37567 17.0268C7.33045 17.1467 7.26081 17.256 7.17116 17.3475C7.08519 17.4351 6.98184 17.5038 6.86777 17.549C6.75369 17.5942 6.63139 17.6151 6.50877 17.6102C6.29429 17.6163 6.08436 17.5478 5.91491 17.4161C5.75359 17.2876 5.64411 17.105 5.60656 16.9021C5.59528 16.8188 5.59528 16.7343 5.60656 16.6509L5.59514 10.6438ZM10.9076 9.01044C10.7446 9.11661 10.6266 9.27935 10.5764 9.46729L8.15526 16.034C8.14242 16.0693 8.12688 16.1055 8.11116 16.1422C8.07096 16.2358 8.02963 16.3321 8.02963 16.4224C8.01002 16.5358 8.01002 16.6516 8.02963 16.7649C8.02357 16.8295 8.02357 16.8946 8.02963 16.9591C8.06309 17.1485 8.16463 17.319 8.31514 17.4387C8.46962 17.5547 8.65878 17.6151 8.8519 17.61C9.03019 17.6325 9.21072 17.5924 9.36274 17.4966C9.51476 17.4008 9.62887 17.2552 9.6856 17.0848L10.1653 15.6801H13.1688L13.6485 17.0848C13.7066 17.2519 13.8194 17.3947 13.9685 17.49C14.1177 17.5853 14.2946 17.6276 14.4707 17.61C14.5853 17.6128 14.6992 17.5919 14.8053 17.5487C14.9114 17.5055 15.0074 17.4408 15.0875 17.3588C15.17 17.2841 15.2353 17.1922 15.2787 17.0896C15.3221 16.9871 15.3426 16.8763 15.3387 16.7649C15.3426 16.6927 15.3426 16.6203 15.3387 16.548C15.299 16.374 15.2495 16.2024 15.1902 16.034L12.9062 9.58146C12.8516 9.3528 12.7129 9.15306 12.5179 9.02187C12.3338 8.91722 12.1242 8.86582 11.9126 8.8734H11.4786C11.2792 8.86451 11.0813 8.912 10.9076 9.01044ZM10.6335 14.3896L11.7184 10.9634L12.7919 14.3896H10.6335ZM15.5985 9.83315C15.5869 9.57686 15.6772 9.32641 15.8497 9.13652C15.9374 9.04806 16.0427 8.97893 16.1588 8.93368C16.2748 8.88844 16.3991 8.86797 16.5235 8.87374C16.7375 8.87124 16.9462 8.93954 17.1174 9.06793C17.276 9.2019 17.3814 9.38824 17.4143 9.59323C17.4256 9.67278 17.4256 9.7536 17.4143 9.83315V15.8403H20.5549C20.7726 15.8375 20.9866 15.8968 21.1716 16.0115C21.2548 16.0628 21.3262 16.131 21.3813 16.2117C21.4364 16.2924 21.4739 16.3837 21.4914 16.4798V16.6511C21.4968 16.7648 21.4748 16.8781 21.427 16.9815C21.3793 17.0849 21.3074 17.1753 21.2173 17.245C21.0182 17.3892 20.7779 17.4652 20.5321 17.4619H16.672C16.4261 17.4777 16.1818 17.4137 15.9753 17.2793C15.7907 17.1412 15.6677 16.9362 15.6327 16.7083C15.6244 16.5828 15.6244 16.4568 15.6327 16.3313L15.5985 9.83315ZM21.9514 9.13661C21.783 9.32897 21.6933 9.57769 21.7001 9.83324L21.6316 16.594C21.6203 16.6774 21.6203 16.762 21.6316 16.8454C21.6691 17.0482 21.7786 17.2307 21.9399 17.3593C22.1059 17.4892 22.3117 17.5579 22.5224 17.5535C22.6485 17.5587 22.7743 17.5381 22.8922 17.493C23.01 17.4478 23.1174 17.3789 23.2076 17.2907C23.376 17.0983 23.4657 16.8496 23.4589 16.594V14.6869L24.4753 13.6248L26.5995 17.0509C26.6875 17.2115 26.8128 17.3486 26.9649 17.4506C27.1055 17.5244 27.2631 17.56 27.4217 17.5535C27.6605 17.5568 27.8936 17.4804 28.0841 17.3364C28.1854 17.2503 28.2643 17.1409 28.314 17.0176C28.3638 16.8942 28.3828 16.7606 28.3696 16.6283V16.5713C28.3066 16.3793 28.2141 16.1981 28.0955 16.0345V15.9203L25.8115 12.38L27.7073 10.3014C27.7909 10.207 27.8636 10.1037 27.9242 9.99314C27.9837 9.88873 28.0152 9.77065 28.0156 9.65048C28.0101 9.62412 28.0101 9.59695 28.0156 9.5706C28.0202 9.54799 28.0202 9.52461 28.0156 9.50201C27.9993 9.40982 27.9647 9.32189 27.9137 9.2434C27.8626 9.16491 27.7963 9.09745 27.7187 9.04516C27.5539 8.93252 27.3587 8.87274 27.1591 8.87383C27.0226 8.87115 26.8881 8.90686 26.7708 8.97671C26.6463 9.07592 26.5281 9.18261 26.4167 9.29638L23.5274 12.6312V9.83324C23.533 9.7534 23.533 9.67316 23.5274 9.59332C23.4905 9.38706 23.3811 9.20081 23.219 9.06802C23.0321 8.93185 22.8039 8.86427 22.573 8.87675C22.3421 8.88924 22.1225 8.98108 21.9514 9.13661Z" fill="white"/>
</svg>
